<svg width="56" height="55" viewBox="0 0 56 55" fill="none" xmlns="http://www.w3.org/2000/svg">
<path d="M24.3008 33.6724C35.0049 31.8899 45.1211 39.124 46.9036 49.8186" stroke="#B4E051" stroke-width="8" stroke-linecap="round" stroke-linejoin="round"/>
<path d="M24.3008 33.6724C35.0049 31.8899 45.1211 39.124 46.9036 49.8186" stroke="#076CF2" stroke-width="8" stroke-linecap="round" stroke-linejoin="round"/>
<path d="M8.14453 49.8185C9.48136 41.769 15.7957 35.0849 24.3002 33.6722C25.0208 33.549 25.7319 33.4731 26.4429 33.4352C26.8127 33.4162 27.1919 33.4068 27.5617 33.4068" stroke="#8ABFFF" stroke-width="8" stroke-linecap="round" stroke-linejoin="round"/>
<path d="M27.5238 5.18179C35.3172 5.18179 41.6316 11.4962 41.6316 19.2896C41.6316 27.083 35.3172 33.3974 27.5238 33.3974C19.7304 33.3974 13.416 27.083 13.416 19.2896C13.416 11.4962 19.7304 5.18179 27.5238 5.18179Z" stroke="#FDD600" stroke-width="8" stroke-linecap="round" stroke-linejoin="round"/>
<path d="M27.5234 5.18179C35.3169 5.18179 41.6312 11.4962 41.6312 19.2896C41.6312 27.083 35.3169 33.3974 27.5234 33.3974" stroke="#FDD600" stroke-width="8" stroke-linecap="round" stroke-linejoin="round"/>
<path d="M27.5234 5.18179C35.3169 5.18179 41.6312 11.4962 41.6312 19.2896C41.6312 27.083 35.3169 33.3974 27.5234 33.3974" stroke="#B4E051" stroke-width="8" stroke-linecap="round" stroke-linejoin="round"/>
<path d="M19.1523 7.94078C21.4942 6.20575 24.3954 5.18179 27.5336 5.18179" stroke="#FDD600" stroke-width="8" stroke-linecap="round" stroke-linejoin="round"/>
</svg>
