<svg width="32" height="35" viewBox="0 0 32 35" fill="none" xmlns="http://www.w3.org/2000/svg">
<path fill-rule="evenodd" clip-rule="evenodd" d="M31.1905 17.4801H15.8047V0.891179C16.0492 0.879138 16.2953 0.873047 16.5428 0.873047C24.6956 0.873047 31.3047 7.48218 31.3047 15.635C31.3047 16.2598 31.2659 16.8757 31.1905 17.4801Z" fill="#0064FF"/>
<path fill-rule="evenodd" clip-rule="evenodd" d="M15.6905 17.4801H0.304688V0.891179C0.549208 0.879138 0.795293 0.873047 1.0428 0.873047C9.19558 0.873047 15.8047 7.48218 15.8047 15.635C15.8047 16.2598 15.7659 16.8757 15.6905 17.4801Z" fill="#FDD600"/>
<path fill-rule="evenodd" clip-rule="evenodd" d="M31.1905 34.0875H15.8047V17.4986C16.0492 17.4866 16.2953 17.4805 16.5428 17.4805C24.6956 17.4805 31.3047 24.0896 31.3047 32.2424C31.3047 32.8673 31.2659 33.4831 31.1905 34.0875Z" fill="#8ABFFF"/>
<path fill-rule="evenodd" clip-rule="evenodd" d="M15.6905 34.0875H0.304688V17.4986C0.549208 17.4866 0.795293 17.4805 1.0428 17.4805C9.19558 17.4805 15.8047 24.0896 15.8047 32.2424C15.8047 32.8673 15.7659 33.4831 15.6905 34.0875Z" fill="#B4E051"/>
</svg>
