<svg width="56" height="55" viewBox="0 0 56 55" fill="none" xmlns="http://www.w3.org/2000/svg">
<path d="M11.1416 47.1858C6.99625 43.7345 6.42578 37.564 9.87708 33.4186L18.5956 22.9412C22.0469 18.7958 28.2174 18.2253 32.3628 21.6766C36.5081 25.1279 37.0786 31.2984 33.6273 35.4438L24.9087 45.9213C21.4575 50.0666 15.287 50.6371 11.1416 47.1858Z" stroke="#FDD600" stroke-width="8" stroke-linecap="round" stroke-linejoin="round"/>
<path d="M18.6044 22.9412C22.0557 18.7958 28.2262 18.2253 32.3716 21.6766C36.5169 25.1279 37.0874 31.2984 33.6361 35.4438L24.9175 45.9213C21.4662 50.0666 15.2957 50.6371 11.1504 47.1858" stroke="#B4E051" stroke-width="8" stroke-linecap="round" stroke-linejoin="round"/>
<path d="M22.6748 33.3235C18.5294 29.8722 17.959 23.7017 21.4103 19.5563L30.1288 9.07886C33.5801 4.9335 39.7506 4.36304 43.896 7.81433C48.0413 11.2656 48.6118 17.4361 45.1605 21.5815L36.442 32.059C32.9907 36.2043 26.8202 36.7748 22.6748 33.3235Z" stroke="#076CF2" stroke-width="8" stroke-linecap="round" stroke-linejoin="round"/>
<path d="M43.9048 7.82376C48.0501 11.2751 48.6206 17.4456 45.1693 21.5909L36.4507 32.0684C32.9994 36.2137 26.8289 36.7842 22.6836 33.3329" stroke="#8ABFFF" stroke-width="8" stroke-linecap="round" stroke-linejoin="round"/>
<path d="M22.6748 33.3235C18.5294 29.8722 17.959 23.7017 21.4103 19.5563L30.1288 9.07884" stroke="#076CF2" stroke-width="8" stroke-linecap="round" stroke-linejoin="round"/>
<path d="M11.4746 31.5076L18.6054 22.9316C22.0567 18.7863 28.2272 18.2158 32.3725 21.6671" stroke="#FDD600" stroke-width="8" stroke-linecap="round" stroke-linejoin="round"/>
</svg>
