<svg width="56" height="55" viewBox="0 0 56 55" fill="none" xmlns="http://www.w3.org/2000/svg">
<path d="M24.917 43.2958C35.3073 43.2958 43.7304 34.8728 43.7304 24.4824C43.7304 14.092 35.3073 5.66895 24.917 5.66895C14.5266 5.66895 6.10352 14.092 6.10352 24.4824C6.10352 34.8728 14.5266 43.2958 24.917 43.2958Z" stroke="#8ABFFF" stroke-width="8" stroke-linecap="round" stroke-linejoin="round"/>
<path d="M24.917 5.66895C35.308 5.66895 43.7304 14.0913 43.7304 24.4824C43.7304 34.8734 35.308 43.2958 24.917 43.2958C14.5259 43.2958 6.10352 34.8714 6.10352 24.4824" stroke="#FDD600" stroke-width="8" stroke-linecap="round" stroke-linejoin="round"/>
<path d="M24.918 5.66895C35.309 5.66895 43.7314 14.0913 43.7314 24.4824C43.7314 34.8734 35.309 43.2958 24.918 43.2958" stroke="#B4E051" stroke-width="8" stroke-linecap="round" stroke-linejoin="round"/>
<path d="M24.918 5.66895C35.309 5.66895 43.7314 14.0913 43.7314 24.4824" stroke="#076CF2" stroke-width="8" stroke-linecap="round" stroke-linejoin="round"/>
<path d="M10.3652 12.5542C13.816 8.35018 19.0523 5.66895 24.9156 5.66895" stroke="#8ABFFF" stroke-width="8" stroke-linecap="round" stroke-linejoin="round"/>
<path d="M39.0801 39.3667L48.2134 48.8147" stroke="#B4E051" stroke-width="8" stroke-linecap="round"/>
</svg>
